<?xml version="1.0" encoding="UTF-8" standalone="no"?><!DOCTYPE svg PUBLIC "-//W3C//DTD SVG 1.1//EN" "http://www.w3.org/Graphics/SVG/1.1/DTD/svg11.dtd"><svg width="100%" height="100%" viewBox="0 0 35 36" version="1.1" xmlns="http://www.w3.org/2000/svg" xmlns:xlink="http://www.w3.org/1999/xlink" xml:space="preserve" xmlns:serif="http://www.serif.com/" style="fill-rule:evenodd;clip-rule:evenodd;stroke-linejoin:round;stroke-miterlimit:2;"><g><path d="M0,0.7l0,0.45c0,0.167 0.008,0.333 0.025,0.5c0.017,0.167 0.025,0.333 0.025,0.5c0,-0.167 -0.008,-0.333 -0.025,-0.5c-0.017,-0.167 -0.025,-0.333 -0.025,-0.5l0,-0.45Zm5.7,0.25l0,0.75c0,-0.2 -0.033,-0.35 -0.1,-0.45c-0.067,-0.1 -0.125,-0.175 -0.175,-0.225c-0.05,-0.05 -0.058,-0.075 -0.025,-0.075l0.3,0Zm-3.5,1.3l0,-0.7l0.7,0c0,-0.1 0.017,-0.183 0.05,-0.25c0.033,-0.067 0.092,-0.083 0.175,-0.05c0.083,0.033 0.225,0.15 0.425,0.35l-0.275,0c-0.017,0 0,0.025 0.05,0.075c0.05,0.05 0.108,0.125 0.175,0.225c0.067,0.1 0.1,0.233 0.1,0.4c-0.167,-0.2 -0.3,-0.308 -0.4,-0.325c-0.1,-0.017 -0.2,-0.008 -0.3,0.025c-0.1,0.033 -0.2,0.083 -0.3,0.15c-0.1,0.067 -0.233,0.1 -0.4,0.1Zm2.05,-0.6l0.05,0.7l-0.05,-0.7Zm1.45,0.05l0.05,0.7l-0.05,-0.7Zm-5.65,0.45c-0.033,0.367 -0.042,0.867 -0.025,1.5c0.017,0.633 0.025,1.317 0.025,2.05l0,2.15c0,0.7 0.017,1.4 0.05,2.1c-0.033,-0.333 -0.05,-0.558 -0.05,-0.675l0,-7.125Zm3.55,0.15c-0.367,-0.033 -0.6,-0.05 -0.7,-0.05l-0.7,0l0.45,0c0.133,0 0.283,0.008 0.45,0.025c0.167,0.017 0.333,0.025 0.5,0.025Zm-2.1,2l0,0.75c0,-0.2 -0.033,-0.308 -0.1,-0.325c-0.067,-0.017 -0.125,-0.008 -0.175,0.025c-0.05,0.033 -0.067,0.092 -0.05,0.175c0.017,0.083 0.125,0.125 0.325,0.125l-0.75,-0.05c0.2,-0.167 0.35,-0.267 0.45,-0.3c0.1,-0.033 0.175,-0.05 0.225,-0.05c0.05,0 0.075,-0.008 0.075,-0.025l0,-0.325Zm4.25,1l-0.05,0.65c-0.367,-0.033 -0.575,-0.075 -0.625,-0.125c-0.05,-0.05 -0.058,-0.242 -0.025,-0.575l0.7,0.05Zm-3.55,-0.2c0.367,0 0.575,0.025 0.625,0.075c0.05,0.05 0.075,0.258 0.075,0.625c-0.133,-0.1 -0.25,-0.183 -0.35,-0.25c-0.233,-0.1 -0.35,-0.017 -0.35,0.25l0,-0.7Zm1.4,0.75l-0.7,-0.05l0.7,0.05Zm2.15,0.8l0,0.75l0,-0.75Zm-0.7,0.7l0,0.7c-0.2,-0.167 -0.317,-0.292 -0.35,-0.375c-0.033,-0.083 -0.017,-0.158 0.05,-0.225c0.067,-0.067 0.167,-0.1 0.3,-0.1Zm-2.85,-0.1l0,0.7l0,-0.7Zm2.1,0.1l0,0.7l0,-0.7Zm1.45,0.75c0.3,0.033 0.5,0.167 0.6,0.4c0.067,0.133 0.1,0.25 0.1,0.35l-0.7,-0.05l0,-0.7Zm-2.15,0.6l0,-0.3c0,-0.033 0.025,-0.025 0.075,0.025c0.05,0.05 0.125,0.117 0.225,0.2c0.1,0.083 0.233,0.125 0.4,0.125l-0.7,-0.05Zm-0.7,-0.05l0,0.8l0,-0.8Zm2.9,1.6l0.7,0.05l-0.7,-0.05Zm-3.6,0.55l0,0.7l-0.7,-0.05c0,-0.267 0.117,-0.467 0.35,-0.6c0.1,-0.033 0.217,-0.05 0.35,-0.05Zm14.2,0.7l0,0.7l0,-0.7Zm-12.8,0.05l0.7,0.05l-0.7,-0.05Zm-0.7,0l0.7,0l-0.7,0Zm3.6,0.85l-0.05,0.75l0.05,-0.75Zm-0.7,2.1l0,0.75l-0.7,0c0.367,0 0.575,-0.033 0.625,-0.1c0.05,-0.067 0.075,-0.283 0.075,-0.65Zm-1.5,1.4c0.367,0.067 0.6,0.2 0.7,0.4c0.067,0.133 0.1,0.25 0.1,0.35c-0.133,-0.033 -0.267,-0.083 -0.4,-0.15c-0.267,-0.133 -0.4,-0.333 -0.4,-0.6Zm0.8,2.9c0.167,0 0.292,0.042 0.375,0.125c0.083,0.083 0.158,0.158 0.225,0.225c0.067,0.133 0.1,0.25 0.1,0.35c-0.367,0 -0.575,-0.025 -0.625,-0.075c-0.05,-0.05 -0.075,-0.258 -0.075,-0.625Zm-0.75,1.35l0.75,0.05l-0.75,-0.05Zm-0.65,0.7l0.65,0.05l-0.65,-0.05Zm2.1,0.1l0,0.75l0,-0.75Zm-2.1,0.65c0.167,0 0.258,0.033 0.275,0.1c0.017,0.067 0.008,0.125 -0.025,0.175c-0.033,0.05 -0.083,0.058 -0.15,0.025c-0.067,-0.033 -0.1,-0.133 -0.1,-0.3Zm0,0.7l0.65,0l-0.65,0Zm0.05,0.7l-0.05,0.7c0,-0.167 -0.025,-0.3 -0.075,-0.4c-0.05,-0.1 -0.1,-0.175 -0.15,-0.225c-0.05,-0.05 -0.067,-0.075 -0.05,-0.075l0.325,0Zm2.75,1.5l0.05,0.75l-0.05,-0.75Zm-2.1,0.65l-0.05,0.7l0.05,-0.7Zm1.45,0.1l-0.05,0.7l-0.7,-0.05c0,-0.133 0.033,-0.25 0.1,-0.35c0.133,-0.2 0.35,-0.3 0.65,-0.3Zm9.9,0.5l0.7,0l0,0.7l-0.7,0l0,-0.7Zm-11.4,0.1c0.1,0 0.217,0.033 0.35,0.1c0.267,0.133 0.4,0.367 0.4,0.7c-0.2,0 -0.342,-0.042 -0.425,-0.125c-0.083,-0.083 -0.158,-0.175 -0.225,-0.275c-0.067,-0.133 -0.1,-0.267 -0.1,-0.4Zm2.15,0.85l0.05,0.7c-0.333,0 -0.55,-0.117 -0.65,-0.35c-0.067,-0.1 -0.1,-0.217 -0.1,-0.35l0.7,0Zm-2.15,-0.1l0.05,0.7c-0.333,0 -0.525,-0.025 -0.575,-0.075c-0.05,-0.05 -0.092,-0.258 -0.125,-0.625l0.65,0Zm0.75,0.05l0.7,0.05l-0.7,-0.05Zm0.05,0.7l-0.75,-0.05l0.75,0.05Zm0,0.7l-0.75,-0.05l0.75,0.05Zm8.5,1.15l0.05,0.7l-0.05,-0.7Zm-8.55,-0.4l0.05,0.65c-0.2,0 -0.308,-0.008 -0.325,-0.025c-0.017,-0.017 0,-0.042 0.05,-0.075c0.05,-0.033 0.1,-0.092 0.15,-0.175c0.05,-0.083 0.075,-0.208 0.075,-0.375Zm-4.95,0.4l0,1.5l0,-1.5Zm6.4,1l-0.7,0l0.7,0Zm-2.8,-0.1l-0.75,-0.05l0.75,0.05Zm1.4,0.05l0.7,0.05c0,0.2 -0.042,0.342 -0.125,0.425c-0.083,0.083 -0.158,0.158 -0.225,0.225c-0.133,0.067 -0.25,0.083 -0.35,0.05c0,-0.2 0.033,-0.308 0.1,-0.325c0.067,-0.017 0.125,-0.025 0.175,-0.025c0.05,0 0.058,-0.017 0.025,-0.05c-0.033,-0.033 -0.133,-0.15 -0.3,-0.35Zm0,0.75l-0.75,-0.05l0.75,0.05Zm-2.15,-0.1c0,0.167 -0.042,0.267 -0.125,0.3c-0.083,0.033 -0.158,0.017 -0.225,-0.05c-0.133,-0.067 -0.25,-0.167 -0.35,-0.3l0.7,0.05Zm-2.85,-0.1l0,0.65l0,-0.65Zm0,0.65l0,0.8c0.033,0.367 0.042,0.425 0.025,0.175c-0.017,-0.25 -0.025,-0.575 -0.025,-0.975Zm4.25,0.95c0.167,0.033 0.342,0.05 0.525,0.05l0.475,0c0.133,0 0.283,0.017 0.45,0.05c0,0.167 -0.042,0.258 -0.125,0.275c-0.083,0.017 -0.192,0 -0.325,-0.05c-0.133,-0.05 -0.283,-0.117 -0.45,-0.2c-0.167,-0.083 -0.35,-0.125 -0.55,-0.125Zm2.9,0.15c0,0.3 -0.133,0.383 -0.4,0.25c-0.133,-0.067 -0.25,-0.167 -0.35,-0.3l0.75,0.05Zm5.7,0.25c0,0.167 -0.075,0.258 -0.225,0.275c-0.15,0.017 -0.292,0 -0.425,-0.05c-0.133,-0.05 -0.225,-0.1 -0.275,-0.15c-0.05,-0.05 0.008,-0.075 0.175,-0.075l0.75,0Zm12.1,1.35l-0.75,-0.05l0.75,0.05Zm-20.7,-1l0,0.65l-0.65,0c0,-0.133 0.033,-0.25 0.1,-0.35c0.067,-0.067 0.133,-0.133 0.2,-0.2c0.067,-0.067 0.183,-0.1 0.35,-0.1Zm4.3,0.15l0,0.7l0,-0.7Zm-2.85,-0.1c0,0.133 0.033,0.25 0.1,0.35c0.1,0.233 0.3,0.35 0.6,0.35l-0.7,0l0,-0.7Zm5.7,0.25l0,0.7l0,-0.7Zm-0.7,-0.05c0.3,0.033 0.5,0.167 0.6,0.4c0.067,0.133 0.1,0.25 0.1,0.35l-0.7,-0.05l0,-0.7Zm-5,0.5l0,0.75l0.7,0l0.75,0.05l0.7,0.05c-0.733,-0.067 -1.3,-0.1 -1.7,-0.1c-0.4,0 -0.783,-0.017 -1.15,-0.05l0.7,0.05c0,-0.167 -0.042,-0.308 -0.125,-0.425c-0.083,-0.117 -0.158,-0.208 -0.225,-0.275c-0.133,-0.067 -0.25,-0.1 -0.35,-0.1l0.7,0.05Zm5,0.2l0,0.75l0,-0.75Zm1.4,0.85l-0.7,-0.05l0.7,0.05Zm1.45,0.05l0.7,0.05l0,0.3c0,0.033 -0.025,0.025 -0.075,-0.025c-0.05,-0.05 -0.125,-0.117 -0.225,-0.2c-0.1,-0.083 -0.233,-0.125 -0.4,-0.125Zm-3.6,-0.15l-0.65,-0.05c0.333,0 0.717,0.008 1.15,0.025c0.433,0.017 0.85,0.042 1.25,0.075c0.4,0.033 0.767,0.058 1.1,0.075c0.333,0.017 0.583,0.025 0.75,0.025c-1.067,0.133 -2.175,0.183 -3.325,0.15c-1.15,-0.033 -2.3,-0.075 -3.45,-0.125c-1.15,-0.05 -2.3,-0.083 -3.45,-0.1c-1.15,-0.017 -2.242,0.025 -3.275,0.125c-0.033,-6.1 -0.067,-12.017 -0.1,-17.75c-0.033,-5.733 -0.067,-11.467 -0.1,-17.2c5.733,0.267 11.542,0.542 17.425,0.825c5.883,0.283 11.692,0.575 17.425,0.875c-0.367,-0.033 -0.608,-0.05 -0.725,-0.05l-0.725,0c-2.467,0.033 -4.908,0 -7.325,-0.1c-2.417,-0.1 -4.825,-0.225 -7.225,-0.375c-2.4,-0.15 -4.808,-0.317 -7.225,-0.5c-2.417,-0.183 -4.875,-0.342 -7.375,-0.475c0,0.167 0.042,0.267 0.125,0.3c0.083,0.033 0.167,0.05 0.25,0.05c0.083,0 0.167,0.017 0.25,0.05c0.083,0.033 0.125,0.133 0.125,0.3l-0.75,0c0.3,0.333 0.517,0.433 0.65,0.3c0.067,-0.067 0.1,-0.167 0.1,-0.3c-0.2,0.2 -0.308,0.35 -0.325,0.45c-0.017,0.1 0,0.2 0.05,0.3c0.05,0.1 0.117,0.2 0.2,0.3c0.083,0.1 0.125,0.233 0.125,0.4c1.8,0.1 3.55,0.192 5.25,0.275c1.7,0.083 3.283,0.175 4.75,0.275c1.733,-0.1 3.408,-0.092 5.025,0.025c1.617,0.117 3.025,0.45 4.225,1c1.2,0.55 2.125,1.358 2.775,2.425c0.65,1.067 0.892,2.5 0.725,4.3c0,1.233 -0.2,2.258 -0.6,3.075c-0.4,0.817 -0.933,1.5 -1.6,2.05c-0.667,0.55 -1.417,1 -2.25,1.35c-0.833,0.35 -1.683,0.675 -2.55,0.975c0.533,0.2 1.092,0.417 1.675,0.65c0.583,0.233 1.133,0.5 1.65,0.8c0.517,0.3 0.983,0.65 1.4,1.05c0.417,0.4 0.725,0.867 0.925,1.4c0.367,1.067 0.95,3.575 0.95,3.575c0,0 0.433,2.508 0.5,3.575c0.167,0.2 0.308,0.425 0.425,0.675c0.117,0.25 0.242,0.492 0.375,0.725c0.133,0.233 0.3,0.433 0.5,0.6c0.2,0.167 0.467,0.25 0.8,0.25c0.367,-0.167 0.65,-0.417 0.85,-0.75c0.2,-0.333 0.342,-0.717 0.425,-1.15c0.083,-0.433 0.133,-0.908 0.15,-1.425c0.017,-0.517 0.025,-1.042 0.025,-1.575c0.167,0.033 0.342,0.05 0.525,0.05l0.475,0c0.133,0 0.283,0.017 0.45,0.05c0.333,2.5 0.008,4.408 -0.975,5.725c-0.983,1.317 -2.542,1.925 -4.675,1.825c-0.367,-0.033 -0.725,-0.058 -1.075,-0.075c-0.35,-0.017 -0.708,-0.025 -1.075,-0.025c-0.9,-0.233 -1.667,-0.65 -2.3,-1.25c-0.633,-0.6 -1.15,-1.317 -1.55,-2.15c-0.4,-0.833 -0.7,-1.725 -0.9,-2.675c-0.2,-0.95 -0.3,-1.875 -0.3,-2.775l-0.7,-0.05c0,-0.267 0.117,-0.467 0.35,-0.6c0.1,-0.033 0.217,-0.05 0.35,-0.05c-0.367,-0.367 -0.575,-0.617 -0.625,-0.75c-0.05,-0.133 -0.075,-0.383 -0.075,-0.75c0,-0.333 -0.033,-0.642 -0.1,-0.925c-0.067,-0.283 -0.283,-0.442 -0.65,-0.475l0.05,-0.75c-0.4,-0.7 -0.983,-1.25 -1.75,-1.65c-0.767,-0.4 -1.85,-0.633 -3.25,-0.7c-0.033,1.433 -0.042,2.742 -0.025,3.925c0.017,1.183 0.025,2.492 0.025,3.925c0,0.367 0.008,0.842 0.025,1.425c0.017,0.583 0.008,1.058 -0.025,1.425c0.2,0.567 0.467,1 0.8,1.3c0.333,0.3 0.7,0.55 1.1,0.75c0.4,0.2 0.8,0.367 1.2,0.5c0.4,0.133 0.783,0.3 1.15,0.5l0.05,0.75c-1.8,-0.067 -3.575,-0.158 -5.325,-0.275c-1.75,-0.117 -3.525,-0.208 -5.325,-0.275c0,0.167 0.033,0.267 0.1,0.3c0.067,0.033 0.15,0.058 0.25,0.075c0.1,0.017 0.183,0.042 0.25,0.075c0.067,0.033 0.1,0.133 0.1,0.3l0,0.7c0,-0.1 0.033,-0.217 0.1,-0.35c0.067,-0.067 0.142,-0.142 0.225,-0.225c0.083,-0.083 0.208,-0.125 0.375,-0.125l-0.7,0c0,-0.267 0.117,-0.467 0.35,-0.6c0.1,-0.067 0.217,-0.1 0.35,-0.1c0.367,0.033 0.583,0.075 0.65,0.125c0.067,0.05 0.1,0.258 0.1,0.625c-0.367,-0.033 -0.583,-0.025 -0.65,0.025c-0.067,0.05 -0.1,0.258 -0.1,0.625l0.75,0.05l0,-0.7l0.65,0.05l-0.65,-0.05c0.167,-0.167 0.333,-0.258 0.5,-0.275c0.167,-0.017 0.317,-0.025 0.45,-0.025c0.133,0 0.242,-0.017 0.325,-0.05c0.083,-0.033 0.125,-0.133 0.125,-0.3c0,0.267 -0.133,0.467 -0.4,0.6c-0.133,0.067 -0.25,0.1 -0.35,0.1l0.75,0c0,0.267 -0.133,0.467 -0.4,0.6c-0.133,0.067 -0.25,0.1 -0.35,0.1c-0.333,-0.033 -0.558,-0.025 -0.675,0.025c-0.117,0.05 -0.358,0.258 -0.725,0.625l0.75,0.05l0.65,0.05Zm-7.3,-34.65l-0.65,0c0.167,0 0.292,0.033 0.375,0.1c0.083,0.067 0.15,0.125 0.2,0.175c0.05,0.05 0.075,0.058 0.075,0.025l0,-0.3Zm0.75,1.5l0,-1.45c0,0.333 -0.133,0.533 -0.4,0.6c-0.133,0.067 -0.25,0.083 -0.35,0.05c0.333,0.033 0.55,0.167 0.65,0.4c0.067,0.133 0.1,0.267 0.1,0.4Zm-3.5,0.55c0,-0.167 -0.008,-0.333 -0.025,-0.5c-0.017,-0.167 -0.025,-0.333 -0.025,-0.5l0,-0.45l0,0.45c0,0.167 0.008,0.333 0.025,0.5c0.017,0.167 0.025,0.333 0.025,0.5Zm3.55,0.15c0,-0.167 -0.033,-0.3 -0.1,-0.4c-0.067,-0.1 -0.125,-0.175 -0.175,-0.225c-0.05,-0.05 -0.067,-0.075 -0.05,-0.075l0.275,0c-0.2,-0.2 -0.342,-0.317 -0.425,-0.35c-0.083,-0.033 -0.142,-0.017 -0.175,0.05c-0.033,0.067 -0.05,0.15 -0.05,0.25l-0.7,0l0,0.7c0.167,0 0.3,-0.033 0.4,-0.1c0.1,-0.067 0.2,-0.117 0.3,-0.15c0.1,-0.033 0.2,-0.042 0.3,-0.025c0.1,0.017 0.233,0.125 0.4,0.325Zm0.65,-0.65l0.05,0.7l-0.05,-0.7Zm-4.2,0.5l0,7.125c0,0.117 0.017,0.342 0.05,0.675c-0.033,-0.7 -0.05,-1.4 -0.05,-2.1l0,-2.15c0,-0.733 -0.008,-1.417 -0.025,-2.05c-0.017,-0.633 -0.008,-1.133 0.025,-1.5Zm2.15,0.1l0.7,0c0.1,0 0.333,0.017 0.7,0.05c-0.167,0 -0.333,-0.008 -0.5,-0.025c-0.167,-0.017 -0.317,-0.025 -0.45,-0.025l-0.45,0Zm0,1.45l-0.05,-0.75l-0.7,-0.05c0.367,0.033 0.575,0.083 0.625,0.15c0.05,0.067 0.092,0.283 0.125,0.65Zm0,0c0,0.333 0.117,0.5 0.35,0.5c0.233,0 0.35,-0.167 0.35,-0.5l-0.7,0l0.7,0c0.1,0 0.333,0.017 0.7,0.05c-0.167,0 -0.333,-0.008 -0.5,-0.025c-0.167,-0.017 -0.317,-0.025 -0.45,-0.025l-0.45,0Zm11.4,7.65l0,2.9c0.033,0.7 0.042,1.25 0.025,1.65c-0.017,0.4 -0.025,0.783 -0.025,1.15c0.367,0 0.833,0.017 1.4,0.05c0.567,0.033 1.033,0.05 1.4,0.05c-0.3,0 -0.5,-0.117 -0.6,-0.35c-0.067,-0.1 -0.1,-0.217 -0.1,-0.35c0.167,0 0.292,0.042 0.375,0.125c0.083,0.083 0.158,0.158 0.225,0.225c0.067,0.133 0.1,0.25 0.1,0.35c1.1,-0.3 1.975,-0.908 2.625,-1.825c0.65,-0.917 0.975,-1.908 0.975,-2.975c0.1,0 0.217,-0.017 0.35,-0.05c0.233,-0.067 0.333,-0.25 0.3,-0.55l-0.65,-0.1l0.65,0.1c0.033,-0.533 0.008,-1.108 -0.075,-1.725c-0.083,-0.617 -0.192,-1.2 -0.325,-1.75c-0.133,-0.55 -0.283,-1.033 -0.45,-1.45c-0.167,-0.417 -0.333,-0.708 -0.5,-0.875l-0.7,-0.05c-0.2,-0.2 -0.358,-0.392 -0.475,-0.575c-0.117,-0.183 -0.25,-0.342 -0.4,-0.475c-0.15,-0.133 -0.325,-0.242 -0.525,-0.325c-0.2,-0.083 -0.483,-0.142 -0.85,-0.175c-0.367,-0.033 -0.833,-0.058 -1.4,-0.075c-0.567,-0.017 -1.033,-0.042 -1.4,-0.075l0,3.3c0,1.133 0.017,2.417 0.05,3.85Zm-7.85,0.3l0,-0.65l0,0.65l0.7,-0.6l0.05,-0.75l-0.05,0.75l-0.7,-0.05l0.05,-0.75c-0.367,0 -0.575,0.033 -0.625,0.1c-0.05,0.067 -0.092,0.283 -0.125,0.65c0.033,-0.367 0.05,-0.608 0.05,-0.725c0,-0.117 -0.017,-0.358 -0.05,-0.725c0,0.267 0.133,0.467 0.4,0.6c0.133,0.067 0.25,0.1 0.35,0.1c0,-0.167 0.033,-0.267 0.1,-0.3c0.067,-0.033 0.142,-0.042 0.225,-0.025c0.083,0.017 0.158,0.008 0.225,-0.025c0.067,-0.033 0.1,-0.133 0.1,-0.3l-0.7,-0.05c0,-0.367 0.025,-0.583 0.075,-0.65c0.05,-0.067 0.258,-0.083 0.625,-0.05l0,0.75c0,-0.367 -0.008,-0.725 -0.025,-1.075c-0.017,-0.35 -0.008,-0.708 0.025,-1.075l-0.05,0.7l-0.65,-0.05l0,-0.7l0.7,0.05l0,-0.75l-0.7,-0.05c0.267,-0.267 0.467,-0.333 0.6,-0.2c0.067,0.067 0.1,0.15 0.1,0.25c0.2,0 0.308,-0.075 0.325,-0.225c0.017,-0.15 0,-0.333 -0.05,-0.55c-0.05,-0.217 -0.108,-0.442 -0.175,-0.675c-0.067,-0.233 -0.1,-0.45 -0.1,-0.65c-0.3,0 -0.5,0.117 -0.6,0.35c-0.067,0.133 -0.1,0.25 -0.1,0.35l0,-0.75c-0.133,-0.1 -0.283,-0.217 -0.45,-0.35c-0.167,-0.1 -0.342,-0.192 -0.525,-0.275c-0.183,-0.083 -0.358,-0.125 -0.525,-0.125l-0.65,-0.05l0.65,0.05l0.05,0.7l-0.7,-0.05l-0.7,-0.1l-0.7,0c0,0.367 -0.025,0.583 -0.075,0.65c-0.05,0.067 -0.258,0.083 -0.625,0.05c0.367,0.033 0.575,0.017 0.625,-0.05c0.05,-0.067 0.075,-0.283 0.075,-0.65c0,0.333 0.117,0.55 0.35,0.65c0.1,0.067 0.217,0.1 0.35,0.1l0,-0.75l0,0.75l0.7,0.05l0,0.7c0,-0.133 0.033,-0.25 0.1,-0.35c0.133,-0.2 0.333,-0.283 0.6,-0.25l0.75,0l-0.75,0l0,0.65l-0.7,-0.05c0.3,0.033 0.5,0.167 0.6,0.4c0.067,0.133 0.1,0.25 0.1,0.35c0,-0.1 0.033,-0.217 0.1,-0.35c0.067,-0.067 0.142,-0.142 0.225,-0.225c0.083,-0.083 0.208,-0.125 0.375,-0.125c-0.167,0.167 -0.267,0.342 -0.3,0.525c-0.033,0.183 -0.05,0.342 -0.05,0.475c0,0.133 -0.008,0.242 -0.025,0.325c-0.017,0.083 -0.125,0.125 -0.325,0.125l0,-0.75c0,0.1 -0.033,0.217 -0.1,0.35c-0.133,0.267 -0.333,0.383 -0.6,0.35c0,-0.3 0.117,-0.517 0.35,-0.65c0.1,-0.067 0.217,-0.083 0.35,-0.05c-0.3,0 -0.5,0.117 -0.6,0.35c-0.067,0.133 -0.1,0.25 -0.1,0.35c-0.167,-0.2 -0.267,-0.342 -0.3,-0.425c-0.033,-0.083 -0.017,-0.158 0.05,-0.225c0.067,-0.067 0.15,-0.1 0.25,-0.1c-0.367,-0.033 -0.6,-0.05 -0.7,-0.05l-0.7,0c0.167,0.2 0.292,0.317 0.375,0.35c0.083,0.033 0.158,0.017 0.225,-0.05c0.067,-0.067 0.1,-0.167 0.1,-0.3l0,0.75l0.7,0.05l0,0.7l-0.7,-0.05l0.7,0.75l0,-0.7l0.7,0.05l0,1.45l-0.7,-0.05l0.1,0.7l-0.75,0l-0.05,0.7l0.7,0c0.367,0.067 0.608,0.1 0.725,0.1c0.117,0 0.358,0.017 0.725,0.05l0.05,-0.75c0,0.2 -0.042,0.35 -0.125,0.45c-0.083,0.1 -0.175,0.192 -0.275,0.275c-0.1,0.083 -0.192,0.167 -0.275,0.25c-0.083,0.083 -0.125,0.208 -0.125,0.375c0,-0.167 0.075,-0.258 0.225,-0.275c0.15,-0.017 0.308,0.008 0.475,0.075c0.2,0.067 0.45,0.15 0.75,0.25c-0.133,0 -0.25,-0.033 -0.35,-0.1c-0.233,-0.1 -0.35,-0.283 -0.35,-0.55c0.167,0 0.292,0.042 0.375,0.125c0.083,0.083 0.158,0.158 0.225,0.225c0.067,0.1 0.1,0.2 0.1,0.3Zm-5,-6.65l0.75,0.05c-0.2,0 -0.308,-0.042 -0.325,-0.125c-0.017,-0.083 0,-0.142 0.05,-0.175c0.05,-0.033 0.108,-0.042 0.175,-0.025c0.067,0.017 0.1,0.125 0.1,0.325l0,-0.75l0,0.325c0,0.017 -0.025,0.025 -0.075,0.025c-0.05,0 -0.125,0.017 -0.225,0.05c-0.1,0.033 -0.25,0.133 -0.45,0.3Zm1.45,0.8c0,-0.267 0.117,-0.35 0.35,-0.25c0.1,0.067 0.217,0.15 0.35,0.25c0,-0.367 -0.025,-0.575 -0.075,-0.625c-0.05,-0.05 -0.258,-0.075 -0.625,-0.075l0,0.7Zm0.7,0l0.7,0.05l-0.7,-0.05Zm-0.7,0c0.167,0 0.267,0.033 0.3,0.1c0.033,0.067 0.05,0.15 0.05,0.25c0,0.1 0.017,0.183 0.05,0.25c0.033,0.067 0.133,0.1 0.3,0.1l0,-0.7l-0.7,0Zm0,2.15l0,-0.7l0,0.7Zm1.4,0.75l0.7,0.05c-0.167,0 -0.3,-0.042 -0.4,-0.125c-0.1,-0.083 -0.175,-0.15 -0.225,-0.2c-0.05,-0.05 -0.075,-0.058 -0.075,-0.025l0,0.3Zm-0.7,0.75l0,-0.8l0,0.8Zm3.6,0.85l-0.7,-0.05l0.7,0.05Zm-5,1.15l0.7,0.05l0,-0.7c-0.133,0 -0.25,0.017 -0.35,0.05c-0.233,0.133 -0.35,0.333 -0.35,0.6Zm2.8,0.15l-0.7,-0.05l0.7,0.05Zm-0.7,-0.05l-0.7,0l0.7,0Zm2.85,1.6l0.05,-0.75l-0.05,0.75Zm-0.65,15.7l0.05,-0.75c0,0.1 -0.033,0.217 -0.1,0.35c-0.133,0.267 -0.35,0.383 -0.65,0.35l0.7,0.05l0.05,0.65l0.7,0l-0.05,-0.65l-0.7,0l0.75,-0.75l0,-1.775c0,-0.35 -0.008,-0.692 -0.025,-1.025c-0.017,-0.333 -0.025,-0.6 -0.025,-0.8l0,-0.7l0.05,-0.65c-0.033,-0.733 -0.05,-1.575 -0.05,-2.525l0,-2.525l-0.7,-0.05l0.7,0.05c0,-0.7 -0.008,-1.25 -0.025,-1.65c-0.017,-0.4 -0.008,-0.783 0.025,-1.15l0,-0.75l-0.05,-0.7l0.05,0.7c0,-0.167 -0.042,-0.3 -0.125,-0.4c-0.083,-0.1 -0.15,-0.175 -0.2,-0.225c-0.05,-0.05 -0.058,-0.075 -0.025,-0.075l0.3,0l0,-0.7l-0.7,-0.05c0,0.167 -0.033,0.3 -0.1,0.4c-0.067,0.1 -0.142,0.2 -0.225,0.3c-0.083,0.1 -0.158,0.2 -0.225,0.3c-0.067,0.1 -0.1,0.233 -0.1,0.4l0,0.75c0,0.167 -0.042,0.3 -0.125,0.4c-0.083,0.1 -0.175,0.192 -0.275,0.275c-0.1,0.083 -0.183,0.167 -0.25,0.25c-0.067,0.083 -0.1,0.208 -0.1,0.375c0,0.367 -0.033,0.65 -0.1,0.85c-0.067,0.2 -0.142,0.367 -0.225,0.5c-0.083,0.133 -0.158,0.25 -0.225,0.35c-0.067,0.1 -0.1,0.25 -0.1,0.45l0,1.45l-0.75,-0.05l0,1.45l0,-0.7l0,1.35l0,-0.65c0.2,0 0.308,0.042 0.325,0.125c0.017,0.083 0.025,0.167 0.025,0.25c0,0.083 0.017,0.158 0.05,0.225c0.033,0.067 0.15,0.117 0.35,0.15c-0.167,0 -0.317,-0.017 -0.45,-0.05c-0.167,-0.033 -0.333,-0.05 -0.5,-0.05c-0.167,0 -0.333,-0.017 -0.5,-0.05c0.1,0 0.183,0.033 0.25,0.1c0.133,0.133 0.067,0.35 -0.2,0.65l-0.05,0.7l0.7,0.05l0,0.7c0,-0.133 0.033,-0.25 0.1,-0.35c0.067,-0.067 0.142,-0.133 0.225,-0.2c0.083,-0.067 0.225,-0.1 0.425,-0.1c-0.2,0.167 -0.317,0.292 -0.35,0.375c-0.033,0.083 -0.017,0.158 0.05,0.225c0.067,0.067 0.167,0.1 0.3,0.1c-0.2,0 -0.308,0.033 -0.325,0.1c-0.017,0.067 0.008,0.15 0.075,0.25c0.067,0.133 0.167,0.267 0.3,0.4l0.65,0l-0.05,0.7c0.367,0.033 0.608,0.05 0.725,0.05c0.117,0 0.358,0.017 0.725,0.05l0.7,0l0.05,-0.7l-0.05,0.7c-0.267,0 -0.467,0.133 -0.6,0.4c-0.067,0.133 -0.1,0.25 -0.1,0.35c0,-0.133 -0.033,-0.233 -0.1,-0.3c-0.067,-0.067 -0.142,-0.083 -0.225,-0.05c-0.083,0.033 -0.208,0.133 -0.375,0.3c0.133,0.1 0.233,0.217 0.3,0.35c0.133,0.267 0.05,0.383 -0.25,0.35l0.7,0.05l0,0.3c0,0.033 -0.025,0.025 -0.075,-0.025c-0.05,-0.05 -0.125,-0.117 -0.225,-0.2c-0.1,-0.083 -0.233,-0.125 -0.4,-0.125c0.1,0.1 0.183,0.217 0.25,0.35c0.133,0.267 0.05,0.383 -0.25,0.35l-0.05,0.75l0.75,-0.7c0,0.2 0.025,0.35 0.075,0.45c0.05,0.1 0.1,0.175 0.15,0.225c0.05,0.05 0.058,0.075 0.025,0.075l-0.3,0Zm-1.45,-3l0.05,-0.7l-0.05,0.7Zm0.75,0.8c0,-0.333 -0.133,-0.567 -0.4,-0.7c-0.133,-0.067 -0.25,-0.1 -0.35,-0.1c0,0.133 0.033,0.267 0.1,0.4c0.067,0.1 0.142,0.192 0.225,0.275c0.083,0.083 0.225,0.125 0.425,0.125Zm-1.4,-0.05c0.033,0.367 0.075,0.575 0.125,0.625c0.05,0.05 0.242,0.075 0.575,0.075l-0.05,-0.7l-0.65,0Zm0.7,0.7l0.75,0.05l-0.75,-0.05Zm0,0.7l0.75,0.05l-0.75,-0.05Zm0.75,1.45l-0.05,-0.65c0,0.167 -0.025,0.292 -0.075,0.375c-0.05,0.083 -0.1,0.142 -0.15,0.175c-0.05,0.033 -0.067,0.058 -0.05,0.075c0.017,0.017 0.125,0.025 0.325,0.025Zm-5,1.25l0,-1.5l0,1.5Zm5.7,-0.5l0.7,0l-0.7,0Zm-2.85,-0.15l0.75,0.05l-0.75,-0.05Zm2.15,0.85c0.1,0.033 0.217,0.017 0.35,-0.05c0.067,-0.067 0.142,-0.142 0.225,-0.225c0.083,-0.083 0.125,-0.225 0.125,-0.425l-0.7,-0.05c0.167,0.2 0.267,0.317 0.3,0.35c0.033,0.033 0.025,0.05 -0.025,0.05c-0.05,0 -0.108,0.008 -0.175,0.025c-0.067,0.017 -0.1,0.125 -0.1,0.325Zm-0.75,-0.05l0.75,0.05l-0.75,-0.05Zm-2.1,-0.1c0.1,0.133 0.217,0.233 0.35,0.3c0.067,0.067 0.142,0.083 0.225,0.05c0.083,-0.033 0.125,-0.133 0.125,-0.3l-0.7,-0.05Zm-2.15,0.6l0,-0.65l0,0.65Zm0,0.8l0,-0.8c0,0.4 0.008,0.725 0.025,0.975c0.017,0.25 0.008,0.192 -0.025,-0.175Zm5.7,0.25c-0.167,-0.033 -0.317,-0.05 -0.45,-0.05l-0.475,0c-0.183,0 -0.358,-0.017 -0.525,-0.05c0.2,0 0.383,0.042 0.55,0.125c0.167,0.083 0.317,0.15 0.45,0.2c0.133,0.05 0.242,0.067 0.325,0.05c0.083,-0.017 0.125,-0.108 0.125,-0.275Zm0.7,0c0.1,0.133 0.217,0.233 0.35,0.3c0.267,0.133 0.4,0.05 0.4,-0.25l-0.75,-0.05Zm-2.8,1.3l0.65,0l0,-0.65c-0.167,0 -0.283,0.033 -0.35,0.1c-0.067,0.067 -0.133,0.133 -0.2,0.2c-0.067,0.1 -0.1,0.217 -0.1,0.35Zm4.95,-0.5l0,0.7l0,-0.7Zm-2.85,0.6l0.7,0c-0.3,0 -0.5,-0.117 -0.6,-0.35c-0.067,-0.1 -0.1,-0.217 -0.1,-0.35l0,0.7Zm-0.7,-0.05c0,-0.1 -0.033,-0.183 -0.1,-0.25c-0.133,-0.133 -0.35,-0.067 -0.65,0.2l0.75,0.05Zm1.4,0.05l0,0.75l0,-0.325c0,-0.017 0.025,-0.025 0.075,-0.025c0.05,0 0.125,-0.017 0.225,-0.05c0.1,-0.033 0.25,-0.133 0.45,-0.3l-0.75,-0.05l0.75,0.05l-0.75,-0.05Zm-1.4,-0.05c0.1,0 0.217,0.033 0.35,0.1c0.067,0.067 0.142,0.158 0.225,0.275c0.083,0.117 0.125,0.258 0.125,0.425l-0.7,-0.05c0.367,0.033 0.75,0.05 1.15,0.05c0.4,0 0.967,0.033 1.7,0.1l-0.7,-0.05l-0.75,-0.05l-0.7,0l0,-0.75l-0.7,-0.05Zm-3,-33.65l0.65,0l0,0.3c0,0.033 -0.025,0.025 -0.075,-0.025c-0.05,-0.05 -0.117,-0.108 -0.2,-0.175c-0.083,-0.067 -0.208,-0.1 -0.375,-0.1Zm0.65,0.7c0.1,0.033 0.217,0.017 0.35,-0.05c0.267,-0.067 0.4,-0.267 0.4,-0.6l0,1.45c0,-0.133 -0.033,-0.267 -0.1,-0.4c-0.1,-0.233 -0.317,-0.367 -0.65,-0.4Zm-1.35,2.1l0.7,0.05l0.05,0.75c-0.033,-0.367 -0.075,-0.583 -0.125,-0.65c-0.05,-0.067 -0.258,-0.117 -0.625,-0.15Zm0.75,0.8l0.45,0c0.133,0 0.283,0.008 0.45,0.025c0.167,0.017 0.333,0.025 0.5,0.025c-0.367,-0.033 -0.6,-0.05 -0.7,-0.05l-0.7,0l0.7,0c0,0.333 -0.117,0.5 -0.35,0.5c-0.233,0 -0.35,-0.167 -0.35,-0.5Zm2.85,7.3c0,0.267 0.117,0.45 0.35,0.55c0.1,0.067 0.217,0.1 0.35,0.1c-0.3,-0.1 -0.55,-0.183 -0.75,-0.25c-0.167,-0.067 -0.325,-0.092 -0.475,-0.075c-0.15,0.017 -0.225,0.108 -0.225,0.275c0,-0.167 0.042,-0.292 0.125,-0.375c0.083,-0.083 0.175,-0.167 0.275,-0.25c0.1,-0.083 0.192,-0.175 0.275,-0.275c0.083,-0.1 0.125,-0.25 0.125,-0.45l-0.05,0.75c-0.367,-0.033 -0.608,-0.05 -0.725,-0.05c-0.117,0 -0.358,-0.033 -0.725,-0.1l-0.7,0l0.05,-0.7l0.75,0l-0.1,-0.7l0.7,0.05l0,-1.45l-0.7,-0.05l0,0.7l-0.7,-0.75l0.7,0.05l0,-0.7l-0.7,-0.05l0,-0.75c0,0.133 -0.033,0.233 -0.1,0.3c-0.067,0.067 -0.142,0.083 -0.225,0.05c-0.083,-0.033 -0.208,-0.15 -0.375,-0.35l0.7,0c0.1,0 0.333,0.017 0.7,0.05c-0.1,0 -0.183,0.033 -0.25,0.1c-0.067,0.067 -0.083,0.142 -0.05,0.225c0.033,0.083 0.133,0.225 0.3,0.425c0,-0.1 0.033,-0.217 0.1,-0.35c0.1,-0.233 0.3,-0.35 0.6,-0.35c-0.133,-0.033 -0.25,-0.017 -0.35,0.05c-0.233,0.133 -0.35,0.35 -0.35,0.65c0.267,0.033 0.467,-0.083 0.6,-0.35c0.067,-0.133 0.1,-0.25 0.1,-0.35l0,0.75c0.2,0 0.308,-0.042 0.325,-0.125c0.017,-0.083 0.025,-0.192 0.025,-0.325c0,-0.133 0.017,-0.292 0.05,-0.475c0.033,-0.183 0.133,-0.358 0.3,-0.525c-0.167,0 -0.292,0.042 -0.375,0.125c-0.083,0.083 -0.158,0.158 -0.225,0.225c-0.067,0.133 -0.1,0.25 -0.1,0.35c0,-0.1 -0.033,-0.217 -0.1,-0.35c-0.1,-0.233 -0.3,-0.367 -0.6,-0.4l0.7,0.05l0,-0.65l0.75,0l-0.75,0c-0.267,-0.033 -0.467,0.05 -0.6,0.25c-0.067,0.1 -0.1,0.217 -0.1,0.35l0,-0.7l-0.7,-0.05l0,-0.75l0,0.75c-0.133,0 -0.25,-0.033 -0.35,-0.1c-0.233,-0.1 -0.35,-0.317 -0.35,-0.65c0,0.367 -0.025,0.583 -0.075,0.65c-0.05,0.067 -0.258,0.083 -0.625,0.05c0.367,0.033 0.575,0.017 0.625,-0.05c0.05,-0.067 0.075,-0.283 0.075,-0.65l0.7,0l0.7,0.1l0.7,0.05l-0.05,-0.7l-0.65,-0.05l0.65,0.05c0.167,0 0.342,0.042 0.525,0.125c0.183,0.083 0.358,0.175 0.525,0.275c0.167,0.133 0.317,0.25 0.45,0.35l0,0.75c0,-0.1 0.033,-0.217 0.1,-0.35c0.1,-0.233 0.3,-0.35 0.6,-0.35c0,0.2 0.033,0.417 0.1,0.65c0.067,0.233 0.125,0.458 0.175,0.675c0.05,0.217 0.067,0.4 0.05,0.55c-0.017,0.15 -0.125,0.225 -0.325,0.225c0,-0.1 -0.033,-0.183 -0.1,-0.25c-0.133,-0.133 -0.333,-0.067 -0.6,0.2l0.7,0.05l0,0.75l-0.7,-0.05l0,0.7l0.65,0.05l0.05,-0.7c-0.033,0.367 -0.042,0.725 -0.025,1.075c0.017,0.35 0.025,0.708 0.025,1.075l0,-0.75c-0.367,-0.033 -0.575,-0.017 -0.625,0.05c-0.05,0.067 -0.075,0.283 -0.075,0.65l0.7,0.05c0,0.167 -0.033,0.267 -0.1,0.3c-0.067,0.033 -0.142,0.042 -0.225,0.025c-0.083,-0.017 -0.158,-0.008 -0.225,0.025c-0.067,0.033 -0.1,0.133 -0.1,0.3c-0.1,0 -0.217,-0.033 -0.35,-0.1c-0.267,-0.133 -0.4,-0.333 -0.4,-0.6c0.033,0.367 0.05,0.608 0.05,0.725c0,0.117 -0.017,0.358 -0.05,0.725c0.033,-0.367 0.075,-0.583 0.125,-0.65c0.05,-0.067 0.258,-0.1 0.625,-0.1l-0.05,0.75l0.7,0.05l0.05,-0.75l-0.05,0.75l-0.7,0.6l0,-0.65l0,0.65c0,-0.1 -0.033,-0.2 -0.1,-0.3c-0.067,-0.067 -0.142,-0.142 -0.225,-0.225c-0.083,-0.083 -0.208,-0.125 -0.375,-0.125Zm-0.7,-0.8l-0.65,-0.05l0.65,0.05c0,-0.167 -0.042,-0.3 -0.125,-0.4c-0.083,-0.1 -0.15,-0.175 -0.2,-0.225c-0.05,-0.05 -0.058,-0.075 -0.025,-0.075l0.3,0l0.05,0.7Zm0.7,-4.95c-0.033,0.333 -0.025,0.525 0.025,0.575c0.05,0.05 0.258,0.092 0.625,0.125l0.05,-0.65l-0.7,-0.05Zm0.7,2.15l0,-0.75l0,0.75Zm-0.7,-0.05c-0.133,0 -0.233,0.033 -0.3,0.1c-0.067,0.067 -0.083,0.142 -0.05,0.225c0.033,0.083 0.15,0.208 0.35,0.375l0,-0.7Zm-0.75,0.7l0,-0.7l0,0.7Zm1.45,0.75l0.7,0.05c0,-0.1 -0.033,-0.217 -0.1,-0.35c-0.1,-0.233 -0.3,-0.367 -0.6,-0.4l0,0.7Zm-0.7,0.75l0,-0.75c0,0.2 -0.033,0.342 -0.1,0.425c-0.067,0.083 -0.125,0.15 -0.175,0.2c-0.05,0.05 -0.067,0.083 -0.05,0.1c0.017,0.017 0.125,0.025 0.325,0.025c0,-0.133 0.033,-0.233 0.1,-0.3c0.1,-0.1 0.3,0 0.6,0.3l0,-0.75c-0.367,0 -0.575,0.033 -0.625,0.1c-0.05,0.067 -0.075,0.283 -0.075,0.65Zm-0.75,-0.05l-0.3,0c-0.033,0 -0.025,0.025 0.025,0.075c0.05,0.05 0.117,0.125 0.2,0.225c0.083,0.1 0.125,0.233 0.125,0.4l-0.65,-0.05l0.65,0.05l-0.05,-0.7Zm-1.4,-3.7l0,0.7c-0.167,0 -0.267,-0.033 -0.3,-0.1c-0.033,-0.067 -0.05,-0.15 -0.05,-0.25c0,-0.1 -0.017,-0.183 -0.05,-0.25c-0.033,-0.067 -0.133,-0.1 -0.3,-0.1l0.7,0Zm2.85,3l0,0.75c-0.3,-0.3 -0.5,-0.4 -0.6,-0.3c-0.067,0.067 -0.1,0.167 -0.1,0.3c-0.2,0 -0.308,-0.008 -0.325,-0.025c-0.017,-0.017 0,-0.05 0.05,-0.1c0.05,-0.05 0.108,-0.117 0.175,-0.2c0.067,-0.083 0.1,-0.225 0.1,-0.425l0,0.75c0,-0.367 0.025,-0.583 0.075,-0.65c0.05,-0.067 0.258,-0.1 0.625,-0.1Zm0.1,19.3l-0.75,0.7l0.05,-0.75c0.3,0.033 0.383,-0.083 0.25,-0.35c-0.067,-0.133 -0.15,-0.25 -0.25,-0.35c0.167,0 0.3,0.042 0.4,0.125c0.1,0.083 0.175,0.15 0.225,0.2c0.05,0.05 0.075,0.058 0.075,0.025l0,-0.3l-0.7,-0.05c0.3,0.033 0.383,-0.083 0.25,-0.35c-0.067,-0.133 -0.167,-0.25 -0.3,-0.35c0.167,-0.167 0.292,-0.267 0.375,-0.3c0.083,-0.033 0.158,-0.017 0.225,0.05c0.067,0.067 0.1,0.167 0.1,0.3c0,-0.1 0.033,-0.217 0.1,-0.35c0.133,-0.267 0.333,-0.4 0.6,-0.4l0.05,-0.7l-0.05,0.7l-0.7,0c-0.367,-0.033 -0.608,-0.05 -0.725,-0.05c-0.117,0 -0.358,-0.017 -0.725,-0.05l0.05,-0.7l-0.65,0c-0.133,-0.133 -0.233,-0.267 -0.3,-0.4c-0.067,-0.1 -0.092,-0.183 -0.075,-0.25c0.017,-0.067 0.125,-0.1 0.325,-0.1c-0.133,0 -0.233,-0.033 -0.3,-0.1c-0.067,-0.067 -0.083,-0.142 -0.05,-0.225c0.033,-0.083 0.15,-0.208 0.35,-0.375c-0.2,0 -0.342,0.033 -0.425,0.1c-0.083,0.067 -0.158,0.133 -0.225,0.2c-0.067,0.1 -0.1,0.217 -0.1,0.35l0,-0.7l-0.7,-0.05l0.05,-0.7c0.267,-0.3 0.333,-0.517 0.2,-0.65c-0.067,-0.067 -0.15,-0.1 -0.25,-0.1c0.167,0.033 0.333,0.05 0.5,0.05c0.167,0 0.333,0.017 0.5,0.05c0.133,0.033 0.283,0.05 0.45,0.05c-0.2,-0.033 -0.317,-0.083 -0.35,-0.15c-0.033,-0.067 -0.05,-0.142 -0.05,-0.225c0,-0.083 -0.008,-0.167 -0.025,-0.25c-0.017,-0.083 -0.125,-0.125 -0.325,-0.125l0,0.65l0,-1.35l0,0.7l0,-1.45l0.75,0.05l0,-1.45c0,-0.2 0.033,-0.35 0.1,-0.45c0.067,-0.1 0.142,-0.217 0.225,-0.35c0.083,-0.133 0.158,-0.3 0.225,-0.5c0.067,-0.2 0.1,-0.483 0.1,-0.85c0,-0.167 0.033,-0.292 0.1,-0.375c0.067,-0.083 0.15,-0.167 0.25,-0.25c0.1,-0.083 0.192,-0.175 0.275,-0.275c0.083,-0.1 0.125,-0.233 0.125,-0.4l0,-0.75c0,-0.167 0.033,-0.3 0.1,-0.4c0.067,-0.1 0.142,-0.2 0.225,-0.3c0.083,-0.1 0.158,-0.2 0.225,-0.3c0.067,-0.1 0.1,-0.233 0.1,-0.4l0.7,0.05l0,0.7l-0.3,0c-0.033,0 -0.025,0.025 0.025,0.075c0.05,0.05 0.117,0.125 0.2,0.225c0.083,0.1 0.125,0.233 0.125,0.4l-0.05,-0.7l0.05,0.7l0,0.75c-0.033,0.367 -0.042,0.75 -0.025,1.15c0.017,0.4 0.025,0.95 0.025,1.65l-0.7,-0.05l0.7,0.05l0,2.525c0,0.95 0.017,1.792 0.05,2.525l-0.05,0.65l0,0.7c0,0.2 0.008,0.467 0.025,0.8c0.017,0.333 0.025,0.675 0.025,1.025l0,1.775l-0.75,0.75l0.7,0l0.05,0.65l-0.7,0l-0.05,-0.65l-0.7,-0.05c0.3,0.033 0.517,-0.083 0.65,-0.35c0.067,-0.133 0.1,-0.25 0.1,-0.35l-0.05,0.75l0.3,0c0.033,0 0.025,-0.025 -0.025,-0.075c-0.05,-0.05 -0.1,-0.125 -0.15,-0.225c-0.05,-0.1 -0.075,-0.25 -0.075,-0.45Zm-0.75,-12.85l0.7,0l0,-0.75c0,0.367 -0.025,0.583 -0.075,0.65c-0.05,0.067 -0.258,0.1 -0.625,0.1Zm0,1.4c0,-0.1 -0.033,-0.217 -0.1,-0.35c-0.1,-0.2 -0.333,-0.333 -0.7,-0.4c0,0.267 0.133,0.467 0.4,0.6c0.133,0.067 0.267,0.117 0.4,0.15Zm-0.75,2.8l0.75,0.05l0,-0.7l-0.75,-0.05c0,0.167 -0.033,0.3 -0.1,0.4c-0.067,0.1 -0.117,0.167 -0.15,0.2c-0.033,0.033 -0.042,0.058 -0.025,0.075c0.017,0.017 0.108,0.025 0.275,0.025Zm1.45,0.05c0,-0.1 -0.033,-0.217 -0.1,-0.35c-0.067,-0.067 -0.142,-0.142 -0.225,-0.225c-0.083,-0.083 -0.208,-0.125 -0.375,-0.125c0,0.367 0.025,0.575 0.075,0.625c0.05,0.05 0.258,0.075 0.625,0.075Zm-1.45,0.65l0.75,0.05l-0.75,-0.05Zm-0.65,0.7l0.65,0.05l-0.65,-0.05Zm2.1,0.1l0,0.75l0,-0.75Zm-2.1,0.65c0,0.167 0.033,0.267 0.1,0.3c0.067,0.033 0.117,0.025 0.15,-0.025c0.033,-0.05 0.042,-0.108 0.025,-0.175c-0.017,-0.067 -0.108,-0.1 -0.275,-0.1Zm0.65,0.7l-0.65,0l0.65,0Zm-0.65,1.4l0.05,-0.7l-0.325,0c-0.017,0 0,0.025 0.05,0.075c0.05,0.05 0.1,0.125 0.15,0.225c0.05,0.1 0.075,0.233 0.075,0.4Zm2.85,1.55l-0.05,-0.75l0.05,0.75Zm-1.4,-0.05l-0.05,-0.75c-0.133,0 -0.233,0.033 -0.3,0.1c-0.1,0.1 0.017,0.317 0.35,0.65Zm-0.05,0.7l0.7,0.05l0.05,-0.7c-0.3,0 -0.517,0.1 -0.65,0.3c-0.067,0.1 -0.1,0.217 -0.1,0.35Zm0.7,0.8c0,0.133 0.033,0.25 0.1,0.35c0.1,0.233 0.317,0.35 0.65,0.35l-0.05,-0.7l-0.7,0Zm0,0l-0.7,-0.05l0.7,0.05Zm-1.45,-7.95l0.75,0.05l0,0.7l-0.75,-0.05c-0.167,0 -0.258,-0.008 -0.275,-0.025c-0.017,-0.017 -0.008,-0.042 0.025,-0.075c0.033,-0.033 0.083,-0.1 0.15,-0.2c0.067,-0.1 0.1,-0.233 0.1,-0.4Zm0.75,5.7l0.05,0.75c-0.333,-0.333 -0.45,-0.55 -0.35,-0.65c0.067,-0.067 0.167,-0.1 0.3,-0.1Zm-0.7,9.25c0.3,-0.267 0.517,-0.333 0.65,-0.2c0.067,0.067 0.1,0.15 0.1,0.25l-0.75,-0.05Zm2.9,0.15l-0.75,-0.05l0.75,0.05c-0.2,0.167 -0.35,0.267 -0.45,0.3c-0.1,0.033 -0.175,0.05 -0.225,0.05c-0.05,0 -0.075,0.008 -0.075,0.025l0,0.325l0,-0.75l0.75,0.05Z" style="fill:#fff;fill-rule:nonzero;"/></g></svg>